<?xml version="1.0" encoding="UTF-8"?>
<svg width="1200pt" height="1200pt" version="1.1" viewBox="0 0 1200 1200" xmlns="http://www.w3.org/2000/svg">
 <g fill="#ffffff">
  <path d="m373.2 384c62.398 0 111.6-50.398 111.6-111.6 0-61.199-50.398-111.6-111.6-111.6-61.199 0-111.6 50.398-111.6 111.6 0.003906 61.203 50.402 111.6 111.6 111.6zm0-176.4c34.801 0 63.602 28.801 63.602 63.602s-28.801 63.602-63.602 63.602-63.602-28.801-63.602-63.602c0.003906-34.805 28.801-63.602 63.602-63.602z"/>
  <path d="m922.8 747.6c55.199-57.602 117.6-122.4 147.6-224.4 18-62.398-3.6016-128.4-54-168 12-26.398 18-55.199 18-84 0-114-92.398-207.6-207.6-207.6-51.602 0-100.8 19.199-139.2 54-52.801-20.398-116.4-18-170.4 4.8008-38.398-37.199-90-57.602-144-57.602-114 0-207.6 92.398-207.6 207.6 0 28.801 6 57.602 18 84-50.398 39.602-72 104.4-52.801 166.8 31.199 105.6 92.398 170.4 151.2 232.8 31.199 139.2 13.199 260.4-56.398 369.6l40.801 25.199c62.398-98.398 87.602-208.8 75.602-328.8 4.8008 6 9.6016 13.199 14.398 19.199 44.398 62.398 158.4 84 247.2 84h12c109.2-2.3984 193.2-33.602 226.8-84 4.8008-7.1992 9.6016-13.199 14.398-20.398-12 120 13.199 230.4 75.602 328.8l40.801-25.199c-69.602-110.4-87.602-231.6-56.398-372 1.1953-0.007812 3.5938-1.207 5.9961-4.8047zm-121.2 69.598c-22.801 36-97.199 60-187.2 62.398-100.8 2.3984-190.8-24-218.4-63.602-20.398-28.801-45.602-56.398-69.602-81.602-2.3984-3.6016-6-6-8.3984-9.6016-55.199-58.801-112.8-120-140.4-214.8-14.398-48 6-99.602 50.398-124.8l21.602-12-12-20.398c-14.398-24-21.602-52.801-21.602-80.398 0-87.602 72-159.6 159.6-159.6 45.602 0 90 20.398 120 55.199l12 14.398 16.801-8.3984c50.398-26.398 112.8-27.602 159.6-4.8008l15.602 8.3984 12-13.199c30-32.398 72-50.398 116.4-50.398 87.602 0 159.6 72 159.6 159.6 0 27.602-7.1992 55.199-21.602 80.398l-12 21.602 21.602 12c44.398 25.199 64.801 76.801 51.602 126-26.398 91.199-81.602 148.8-135.6 204-34.809 30.008-66.008 61.207-90.008 99.605z"/>
  <path d="m993.6 514.8-31.199-36c-90 76.801-160.8 154.8-205.2 206.4-18 21.602-75.602 37.199-142.8 39.602-76.801 2.3984-150-15.602-174-40.801-27.602-30-60-62.398-93.602-96-36-36-74.398-73.199-105.6-108l-36 32.398c32.398 36 70.801 73.199 106.8 110.4 33.602 33.602 64.801 64.801 92.398 94.801 38.398 42 128.4 56.398 198 56.398h12c40.801-1.1992 138-8.3984 178.8-56.398 43.199-51.598 111.6-128.4 200.4-202.8z"/>
  <path d="m826.8 384c62.398 0 111.6-50.398 111.6-111.6 0-61.199-50.398-111.6-111.6-111.6-61.199 0-111.6 50.398-111.6 111.6 0 61.203 49.199 111.6 111.6 111.6zm0-176.4c34.801 0 63.602 28.801 63.602 63.602s-28.801 63.602-63.602 63.602-63.602-28.801-63.602-63.602c0-34.805 27.602-63.602 63.602-63.602z"/>
  <path d="m768 560.4-32.398-34.801c-21.602 20.398-37.199 45.602-44.398 75.602l46.801 12c4.7969-20.398 14.395-38.398 29.996-52.801z"/>
  <path d="m436.8 560.4c15.602 14.398 25.199 31.199 31.199 52.801l46.801-12c-7.1992-30-22.801-55.199-44.398-75.602z"/>
 </g>
</svg>
