<?xml version="1.0" encoding="UTF-8"?>
<svg width="128pt" height="128pt" version="1.1" viewBox="0 0 128 128" xmlns="http://www.w3.org/2000/svg">
 <g fill="#bbb">
  <path d="m39.809 40.961c6.6562 0 11.902-5.375 11.902-11.902s-5.375-11.902-11.902-11.902-11.902 5.375-11.902 11.902c-0.003906 6.5273 5.375 11.902 11.902 11.902zm0-18.816c3.5859 0 6.5273 2.8164 6.7852 6.3984-1.0234-1.2812-2.4336-2.0469-4.0977-2.0469-2.9453 0-5.2461 2.3047-5.2461 5.2461 0 1.5352 0.76953 2.9453 1.793 3.9688-3.457-0.38281-6.1445-3.1992-6.1445-6.7852 0.125-3.7109 3.1992-6.7812 6.9102-6.7812z"/>
  <path d="m98.434 79.742c5.8867-6.1445 12.543-13.055 15.742-23.938 1.9219-6.6562-0.38281-13.695-5.7617-17.922 1.2812-2.8164 1.9219-5.8867 1.9219-8.9609 0-12.16-9.8555-22.145-22.145-22.145-5.5039 0-10.754 2.0469-14.848 5.7617-5.6328-2.1758-12.289-1.9219-18.176 0.38281l-0.12891-0.12891-0.12891 0.12891c-4.0977-3.8398-9.4727-6.1445-15.23-6.1445-12.16 0-22.145 9.8555-22.145 22.145 0 3.0703 0.64062 6.1445 1.9219 8.9609-5.375 4.2227-7.6797 11.137-5.6328 17.793 3.3281 11.266 9.8555 18.176 16.129 24.832 3.3281 14.848 1.4062 27.777-6.0156 39.426l4.3516 2.6875c6.6562-10.496 9.3438-22.273 8.0625-35.07 0.51172 0.64062 1.0234 1.4062 1.5352 2.0469 4.7344 6.6562 16.895 8.9609 26.367 8.9609h1.2812c11.648-0.25781 20.609-3.5859 24.191-8.9609 0.51172-0.76953 1.0234-1.4062 1.5352-2.1758-1.2812 12.801 1.4062 24.574 8.0625 35.07l4.3516-2.6875c-7.4258-11.777-9.3438-24.703-6.0156-39.68 0.26172 0.13281 0.51562 0.003906 0.77344-0.38281zm-12.93 7.4258c-2.4336 3.8398-10.367 6.3984-19.969 6.6562-10.754 0.25781-20.352-2.5586-23.297-6.7852-2.1758-3.0703-4.8633-6.0156-7.4258-8.7031-0.25781-0.38281-0.64062-0.64063-0.89453-1.0234-5.8867-6.2734-12.031-12.801-14.977-22.91-1.5352-5.1211 0.64062-10.625 5.375-13.312l2.3047-1.2812-1.2812-2.1758c-1.5352-2.5586-2.3047-5.6328-2.3047-8.5742 0-9.3438 7.6797-17.023 17.023-17.023 4.8633 0 9.6016 2.1758 12.801 5.8867l0.25781 0.25781c2.3047 2.9453 3.5859 6.6562 3.5859 10.367h5.1211c0-3.9688-1.0234-7.8086-3.0703-11.266 3.7109-1.2812 7.6797-1.4062 11.266-0.51172-2.3047 3.5859-3.457 7.6797-3.457 11.902h5.1211c0-3.8398 1.2812-7.4258 3.5859-10.367l1.0234-1.0234c3.1992-3.457 7.6797-5.375 12.414-5.375 9.3438 0 17.023 7.6797 17.023 17.023 0 2.9453-0.76953 5.8867-2.3047 8.5742l-1.2812 2.3047 2.3047 1.2812c4.7344 2.6875 6.9102 8.1914 5.5039 13.441-2.8164 9.7266-8.7031 15.871-14.465 21.762-4.0977 3.4492-7.4258 6.7773-9.9844 10.875z"/>
  <path d="m105.98 54.91-3.3281-3.8398c-9.6016 8.1914-17.152 16.512-21.887 22.016-1.9219 2.3047-8.0625 3.9688-15.23 4.2227-8.1914 0.25781-16-1.6641-18.559-4.3516-2.9453-3.1992-6.3984-6.6562-9.9844-10.238-3.8398-3.8398-7.9375-7.8086-11.266-11.52l-3.8398 3.457c3.457 3.8398 7.5508 7.8086 11.391 11.777 3.5859 3.5859 6.9102 6.9102 9.8555 10.113 4.0977 4.4805 13.695 6.0156 21.121 6.0156h1.2812c4.3516-0.12891 14.719-0.89453 19.07-6.0156 4.6055-5.5078 11.902-13.699 21.375-21.637z"/>
  <path d="m88.191 40.961c6.6562 0 11.902-5.375 11.902-11.902s-5.375-11.902-11.902-11.902-11.902 5.375-11.902 11.902 5.2461 11.902 11.902 11.902zm0-18.816c3.7109 0 6.7852 3.0703 6.7852 6.7852 0 3.5859-2.6875 6.3984-6.1445 6.7852 1.1523-1.0234 1.793-2.4336 1.793-3.9688 0-2.9453-2.3047-5.2461-5.2461-5.2461-1.6641 0-3.0703 0.76953-4.0977 2.0469 0.38281-3.5859 3.3281-6.4023 6.9102-6.4023z"/>
  <path d="m81.922 59.777-3.457-3.7109c-2.3047 2.1758-3.9688 4.8633-4.7344 8.0625l4.9922 1.2812c0.50781-2.1797 1.5352-4.0977 3.1992-5.6328z"/>
  <path d="m46.594 59.777c1.6641 1.5352 2.6875 3.3281 3.3281 5.6328l4.9922-1.2812c-0.76953-3.1992-2.4336-5.8867-4.7344-8.0625z"/>
 </g>
</svg>
